# xmcd
#
# Track frame offsets:
#	150
#	15919
#	35568
#	53261
#	69743
#	85722
#	100013
#	115311
#	130224
#	147937
#	161666
#	178221
#	191909
#	205254
#	223137
#	237381
#	257759
#	258604
#	259516
#	260215
#	260900
#	261625
#	262421
#	263167
#	263927
#	264670
#	265654
#	266764
#	267659
#	268504
#	269324
#	270149
#	270954
#	271837
#	272664
#	273737
#	274742
#	275477
#	276192
#	276952
#	277817
#	278597
#	279362
#	280147
#	281042
#	281907
#	282592
#	283312
#	284132
#	284887
#	285762
#	286562
#
# Disc length: 3831 seconds
#
# Revision: 1
# Processed by: cddbd v1.5.2PL0 Copyright (c) Steve Scherf et al.
# Submitted via: audiograbber 1.83.01
#
DISCID=7d0ef534
DTITLE=Various Artist - CDX Volume 647 (May 1, 2017)
DYEAR=2017
DGENRE=Country
TTITLE0=Jon Pardi - Heartache On The Dance Floor
TTITLE1=Miranda Lambert - Tin Man 
TTITLE2=Randall Lee Richards - A Paradise Life  
TTITLE3=Christian Davis - An American Soldier's Story
TTITLE4=Tim McDonald - Dad
TTITLE5=Tony Stampley - Daily Bread
TTITLE6=Bubba T's Honky Tonk Revival - Drink All Day
TTITLE7=Mallory Johnson - Good Mistake To Make
TTITLE8=Greg Hudik - Mama's Love
TTITLE9=Anthony K - Marry Me
TTITLE10=Joe Schmidt - Over Time
TTITLE11=McKenna Faith - Poison
TTITLE12=Derek Johnson - Real Cool Kinda Hot
TTITLE13=Tim Elliott - Start Pourin' Whiskey On It
TTITLE14=JP Vance - This Is America [Radio Play Version]
TTITLE15=Mondo - Time To Wine
TTITLE16=Anthony K - Artist Liner - My New Song
TTITLE17=Coffey Anderson - Artist Liner - My New Single
TTITLE18=Coffey Anderson - Artist Liner - Today's Best Country
TTITLE19=Coffey Anderson - Artist Liner - Kixckin' Country
TTITLE20=Coffey Anderson - Artist Liner - Hometown Country
TTITLE21=Coffey Anderson - Artist Liner - Super Country
TTITLE22=Coffey Anderson - Artist Liner - Today's Hot Country
TTITLE23=Coffey Anderson - Artist Liner - Best In Today's country
TTITLE24=Coffey Anderson - Artist Liner - More of the Country You Love
TTITLE25=Coffey Anderson - Artist Liner - Howlin' Country
TTITLE26=Mickey Lamantia - Artist Liner - My New Single
TTITLE27=Mickey Lamantia - Artist Liner - Today's Best Country
TTITLE28=Mickey Lamantia - Artist Liner - More of the Country You Love
TTITLE29=Mickey Lamantia - Artist Liner - Kickin' Country
TTITLE30=Mickey Lamantia - Artist Liner - Hometown Country
TTITLE31=Mickey Lamantia - Artist Liner - Super Country
TTITLE32=Mickey Lamantia - Artist Liner - Today's Hot Country
TTITLE33=Mickey Lamantia - Artist Liner - Best In Today's Country
TTITLE34=Mickey Lamantia - Artist Liner - Howllin' Country
TTITLE35=Mondo - Artist Liner - My New Single
TTITLE36=Mondo - Artist Liner - Today's Best Country
TTITLE37=Mondo - Artist Liner - Kickin' Country
TTITLE38=Mondo - Artist Liner - Hometown Country
TTITLE39=Mondo - Artist Liner - Super Country
TTITLE40=Mondo - Artist Liner - Today's Hot Country
TTITLE41=Mondo - Artist Liner - Best In Today's Country
TTITLE42=Mondo - Artist Liner - More of the Country You Love
TTITLE43=Mondo - Artist Liner - Howlin' Country
TTITLE44=Tim McDonald - Artist Liner - Today's Best Country
TTITLE45=Tim McDonald - Artist Liner - Kickin' Country
TTITLE46=Tim McDonald - Artist Liner - Hometown Country
TTITLE47=Tim McDonald - Artist Liner - Super Country
TTITLE48=Tim McDonald - Artist Liner - Today's Hot Country
TTITLE49=Tim McDonald - Artist Liner - Best In Today's Country
TTITLE50=Tim McDonald - Artist Liner - More of the Country You Love
TTITLE51=Tim McDonald - Artist Liner - Howlin' Country
EXTD=
EXTT0=
EXTT1=
EXTT2=
EXTT3=
EXTT4=
EXTT5=
EXTT6=
EXTT7=
EXTT8=
EXTT9=
EXTT10=
EXTT11=
EXTT12=
EXTT13=
EXTT14=
EXTT15=
EXTT16=
EXTT17=
EXTT18=
EXTT19=
EXTT20=
EXTT21=
EXTT22=
EXTT23=
EXTT24=
EXTT25=
EXTT26=
EXTT27=
EXTT28=
EXTT29=
EXTT30=
EXTT31=
EXTT32=
EXTT33=
EXTT34=
EXTT35=
EXTT36=
EXTT37=
EXTT38=
EXTT39=
EXTT40=
EXTT41=
EXTT42=
EXTT43=
EXTT44=
EXTT45=
EXTT46=
EXTT47=
EXTT48=
EXTT49=
EXTT50=
EXTT51=
PLAYORDER=
